<svg width="138" height="31" viewBox="0 0 138 31" xmlns="http://www.w3.org/2000/svg" xmlns:xlink="http://www.w3.org/1999/xlink">
    <defs>
        <path id="nd8h91dqna" d="M0 31h138V0H0z"/>
    </defs>
    <g fill="none" fill-rule="evenodd">
        <path d="m110.09 9.456 4.012-.845v3.9h4.847v3.411h-4.847v6.694c0 1.626.111 3.089 1.853 3.089a5.42 5.42 0 0 0 2.917-.814l.616 3.054a9.108 9.108 0 0 1-4.826 1.332c-3.699 0-4.543-2.21-4.543-5.687v-7.668h-2.412V12.9l2.384-.325-.002-3.119zM119.488 12.056h4.873l3.417 13.908h.35l3.57-13.908h4.62l-5.508 17.222h-5.96zM0 5.167h4.67v14.581c0 3.648 1.19 5.852 4.248 5.852 3.605 0 4.926-1.743 4.926-6.472V5.167h4.668v14.255c0 6.897-3.444 9.856-9.56 9.856-6.02 0-8.95-2.924-8.95-10.12L0 5.167zM27.539 0h3.825v5.254h5.66v3.327h-5.66v5.197h-3.825V8.58h-5.661V5.253h5.66zM43.763 14.128c0 .366.106.48.451.48h7.927v-6.37h-8.379l.001 5.89zm2.356 8.513v-4.96h-3.975c-1.015.122-1.932-.651-2.048-1.73a2.163 2.163 0 0 1 .006-.497V5.167h15.725v12.52h-6.02v4.961h9.095v3.185H37.024v-3.192h9.095zM75.312 5.167h3.602v7.067h3.55v2.986h-3.55v8.994a30.247 30.247 0 0 1-.444 5.064h-3.155l-.003-24.111zm-6.368 13.528v-4.54h-4.83v4.114c0 .317.13.422.418.422l4.412.004zM64.114 6.3v4.878h4.824V6.3h3.523v15.377h-9.97a1.661 1.661 0 0 1-1.887-1.41 1.662 1.662 0 0 1 .003-.516V6.301h3.507z" fill="#FEFEFE"/>
        <mask id="7q0vwa4tib" fill="#fff">
            <use xlink:href="#nd8h91dqna"/>
        </mask>
        <path d="M99.864 17.988h3.572V5.167h-3.572v12.821zM89.24 19.357h14.202v3.674a7.243 7.243 0 0 1-.617 3.514H92.791v1.262c0 .375.051.429.36.429h11.19V31h-13.48c-1.184 0-1.622-.538-1.622-1.744v-5.338h10.625V22.12H89.24v-2.764zm-1.594-7.887c0 2.012.9 3.004 2.779 3.004 1.59.06 2.927-1.236 2.986-2.895.057-1.66-1.186-3.052-2.778-3.112-1.591-.06-2.927 1.235-2.986 2.894v.11zm2.779-5.874c4.657 0 6.38 2.655 6.38 5.874 0 3.246-1.723 5.875-6.38 5.875-4.605 0-6.278-2.63-6.278-5.875 0-3.219 1.673-5.874 6.278-5.874z" fill="#FEFEFE" mask="url(#7q0vwa4tib)"/>
    </g>
</svg>
