<svg width="24" height="24" viewBox="0 0 24 24" xmlns="http://www.w3.org/2000/svg">
    <defs>
        <linearGradient x1="50%" y1="0%" x2="50%" y2="100%" id="6b4dysklna">
            <stop stop-color="#1E79AF" offset="0%"/>
            <stop stop-color="#63FFD3" offset="100%"/>
        </linearGradient>
        <linearGradient x1="84.718%" y1="27.58%" x2="5.244%" y2="79.361%" id="mgpjcb80mb">
            <stop stop-color="#DC4057" offset="0%"/>
            <stop stop-color="#9E36BB" offset="100%"/>
        </linearGradient>
        <linearGradient x1="50%" y1="0%" x2="50%" y2="97.826%" id="izgworkppc">
            <stop stop-color="#FF9676" offset="0%"/>
            <stop stop-color="#FFD074" offset="100%"/>
        </linearGradient>
        <linearGradient x1="17.444%" y1="18.472%" x2="100%" y2="81.528%" id="984rygt79d">
            <stop stop-color="#51C6AD" offset="0%"/>
            <stop stop-color="#D5FFA1" offset="100%"/>
        </linearGradient>
    </defs>
    <g fill="none" fill-rule="evenodd">
        <path d="M0 0h24v24H0z"/>
        <path d="M.586.038C.23.154 0 .528 0 1.094l.002 17.811c0 .56.223.928.569 1.051l9.593-9.967L.586.04" fill="url(#6b4dysklna)" transform="translate(4.217 1.822)"/>
        <path d="M.571 19.956c.249.088.56.047.9-.147l11.707-6.688-3.014-3.132L.57 19.956" fill="url(#mgpjcb80mb)" transform="translate(4.217 1.822)"/>
        <path d="m13.18 13.12 3.99-2.28c.81-.464.81-1.219 0-1.681l-4.006-2.29-3 3.119 3.015 3.133" fill="url(#izgworkppc)" transform="translate(4.217 1.822)"/>
        <path d="M13.164 6.87 1.47.19C1.14.002.834-.042.586.038l9.578 9.95 3-3.118" fill="url(#984rygt79d)" transform="translate(4.217 1.822)"/>
    </g>
</svg>
