<svg width="24" height="24" viewBox="0 0 24 24" xmlns="http://www.w3.org/2000/svg">
    <g fill="none" fill-rule="evenodd">
        <path d="M0 0h24v24H0z"/>
        <path d="m15.726 5.773.276.017c.694.02 2.668.273 3.942 2.12-.102.06-2.352 1.375-2.327 4.077.027 3.238 2.848 4.309 2.883 4.32-.017.076-.442 1.546-1.5 3.038-.884 1.313-1.81 2.598-3.28 2.621-1.428.033-1.909-.836-3.547-.836-1.653 0-2.165.813-3.535.869-1.4.05-2.47-1.403-3.386-2.705-1.83-2.658-3.255-7.49-1.345-10.78.926-1.612 2.614-2.65 4.418-2.678 1.402-.029 2.703.941 3.565.941.845 0 2.453-1.16 4.112-.987zM15.618 1c.125 1.223-.326 2.427-.985 3.313-.688.871-1.789 1.538-2.86 1.452-.141-1.176.402-2.427 1.01-3.19.687-.866 1.88-1.53 2.835-1.575z" fill="#FFF"/>
    </g>
</svg>
